<svg id="Layer_1" data-name="Layer 1" xmlns="http://www.w3.org/2000/svg" viewBox="0 0 576 512"><defs><style>.cls-1{fill:#333;}</style></defs><title>Artboard 1</title><path class="cls-1" d="M532,386.2c27.5-27.1,44-61.1,44-98.2,0-80-76.5-146.1-176.2-157.9C368.3,72.5,294.3,32,208,32,93.1,32,0,103.6,0,192c0,37,16.5,71,44,98.2C28.7,320.9,6.7,344.7,6.3,345.1a23.15,23.15,0,0,0,16.8,39c53.5,0,96.7-20.2,125.2-38.8a285,285,0,0,0,28.4,4.9C208.1,407.6,281.8,448,368,448a264.7,264.7,0,0,0,59.8-6.8C456.3,459.7,499.4,480,553,480a23.15,23.15,0,0,0,16.8-39C569.4,440.7,547.3,416.9,532,386.2ZM139.2,293.9,122.1,305A203.48,203.48,0,0,1,79,326.4c2.7-4.7,5.4-9.7,8-14.8l15.5-31.1L77.7,256C64.2,242.6,48,220.7,48,192c0-60.7,73.3-112,160-112s160,51.3,160,112S294.7,304,208,304a217.9,217.9,0,0,1-49-5.6l-19.8-4.5ZM498.3,352l-24.7,24.4,15.5,31.1c2.6,5.1,5.3,10.1,8,14.8A203.48,203.48,0,0,1,454,400.9l-17.1-11.1L417,394.4a217.9,217.9,0,0,1-49,5.6c-54,0-102.2-20.1-131.3-49.7C338,339.5,416,272.9,416,192c0-3.4-.4-6.7-.7-10C479.7,196.5,528,238.8,528,288,528,316.7,511.8,338.6,498.3,352Z"/></svg>