<svg id="Layer_1" data-name="Layer 1" xmlns="http://www.w3.org/2000/svg" viewBox="0 0 512 512"><defs><style>.cls-1{fill:#333;}</style></defs><title>Artboard 1</title><path class="cls-1" d="M256,32C114.6,32,0,125.1,0,240c0,47.6,19.9,91.2,52.9,126.3C38,405.7,7,439.1,6.5,439.5A24,24,0,0,0,24,480c61.5,0,110-25.7,139.1-46.3A308.85,308.85,0,0,0,256,448c141.4,0,256-93.1,256-208S397.4,32,256,32Zm0,368a259.86,259.86,0,0,1-78.4-12.1l-22.7-7.2-19.5,13.8a215,215,0,0,1-57.5,29,250.82,250.82,0,0,0,19.9-40.2l10.6-28.1L87.8,333.4C69.7,314.1,48,282.2,48,240c0-88.2,93.3-160,208-160s208,71.8,208,160S370.7,400,256,400Z"/></svg>