<svg id="Layer_1" data-name="Layer 1" xmlns="http://www.w3.org/2000/svg" viewBox="0 0 512 512"><defs><style>.cls-1{fill:#333;}</style></defs><title>Artboard 1</title><path class="cls-1" d="M167,309.34c-40.12,2.58-76.53,17.86-97.19,72.3a15.26,15.26,0,0,1-14.59,10C44.13,391.62,9.78,364,0,357.27,0,439.62,37.93,512,128,512c75.86,0,128-43.77,128-120.19a86.64,86.64,0,0,0-1-9.13l-88-73.34ZM457.89,0c-15.16,0-29.37,6.71-40.21,16.45C213.27,199.05,192,203.34,192,257.09a92.58,92.58,0,0,0,8.73,38.7L264.55,349a92,92,0,0,0,22.39,3c62.11,0,98.11-45.47,211.16-256.46,7.38-14.35,13.9-29.85,13.9-46C512,20.64,486,0,457.89,0Z"/></svg>