<svg id="Layer_1" data-name="Layer 1" xmlns="http://www.w3.org/2000/svg" viewBox="0 0 640 512"><defs><style>.cls-1{fill:#333;}</style></defs><title>Artboard 1</title><path class="cls-1" d="M255,261.65a16,16,0,0,0,22.63,0L289,250.34a16,16,0,0,0,0-22.63L253.25,192,289,156.28a16,16,0,0,0,0-22.63l-11.31-11.31a16,16,0,0,0-22.63,0l-58.34,58.34a16,16,0,0,0,0,22.63Zm96-11.3,11.31,11.31a16,16,0,0,0,22.63,0l58.34-58.34a16,16,0,0,0,0-22.63L385,122.35a16,16,0,0,0-22.63,0L351,133.66a16,16,0,0,0,0,22.63L386.75,192,351,227.72a16,16,0,0,0,0,22.63ZM624,416H381.54c-.74,19.81-14.71,32-32.74,32H288c-18.69,0-33-17.47-32.77-32H16A16,16,0,0,0,0,432v16a64.19,64.19,0,0,0,64,64H576a64.19,64.19,0,0,0,64-64V432A16,16,0,0,0,624,416ZM576,48A48.14,48.14,0,0,0,528,0H112A48.14,48.14,0,0,0,64,48V384H576ZM512,320H128V64H512Z"/></svg>