<svg id="Layer_1" data-name="Layer 1" xmlns="http://www.w3.org/2000/svg" viewBox="0 0 512 512"><defs><style>.cls-1{fill:#333;}</style></defs><title>Artboard 1</title><path class="cls-1" d="M502.6,54.6,457.4,9.4a32,32,0,0,0-45.3,0L344.2,77.3a32,32,0,0,0,0,45.3L290,176.7c-45.4-29-100.4-28.9-133.5,4.2A83.65,83.65,0,0,0,136,214.8c-6.1,18.8-23.5,33.1-42.7,34.9-24,2.3-46.3,11.6-63.4,28.8C-16.3,324.6-8,407.6,48.2,463.8s139.2,64.4,185.3,18.3c17.2-17.1,26.5-39.4,28.8-63.5,1.8-19.1,16.1-36.6,34.9-42.7a83.65,83.65,0,0,0,33.9-20.5c33.1-33.1,33.1-88.1,4.2-133.5l54.2-54.2a32,32,0,0,0,45.3,0l67.9-67.9a32,32,0,0,0-.1-45.2ZM208,352a48,48,0,1,1,48-48A48,48,0,0,1,208,352Z"/></svg>