<svg id="Layer_1" data-name="Layer 1" xmlns="http://www.w3.org/2000/svg" viewBox="0 0 350 300"><defs><style>.cls-1{fill:#eee;}</style></defs><title>Artboard 1</title><path class="cls-1" d="M84.13,264.21c-2.18-4-2.17-4.09,2.25-10.27,3.77-5.27,5.73-6.87,12.75-10.45,23.74-12.11,63.83-18.57,132.7-21.37,12.81-.52,23.51-1.23,23.77-1.59,1.15-1.57,8.53-27.29,8-27.7-.36-.25-2.33.47-4.37,1.61-5.72,3.18-15.31,6.14-16.71,5.17-.69-.49-3.28.34-5.76,1.84-4.79,2.9-4.71,2.93-10.86-4.17-1.82-2.1-2.39-2-6.41,1.21-4.81,3.83-9.16,4.49-11.5,1.74-1.12-1.32-2.51-1.18-5.58.55-4.47,2.52-8.17,2.07-9-1.12-.44-1.62-1.31-1.72-4.15-.51-5.87,2.5-10.36,3.25-12.11,2-1.24-.86-2.64-.12-5.54,2.94-3.87,4.08-6.79,5.65-8.4,4.52-.47-.32-.16-1.58.69-2.78,2.78-4,1.92-8.31-2.23-11.21-6.08-4.26-9.45-4.31-13.37-.23-9,9.35-19.75,14.36-24.22,11.23-3.81-2.67-3.72-6.06.3-11.43,7.13-9.54,13.94-14.89,16.12-12.65,1.84,1.88-3.61,10.61-9.13,14.62-3.83,2.78-4,3.12-2.53,4.18,3.33,2.33,9.58-.3,16.27-6.83,3.26-3.19,3.43-3.67,1.77-5.23-2.33-2.19.61-5.89,5.32-6.73,2.66-.46,3.44-.13,4.27,1.83.75,1.77,2.1,2.75,5.12,3.73,5.33,1.73,10.22,6.76,9.82,10.12-.49,4,2.25,3.32,4.38-1.13,2.87-6,11.84-12.06,17.2-11.62,4,.33,4.2.48,3.13,2-.63.9-3.49,2.21-6.35,2.91-5.35,1.3-10.88,6.66-7.82,7.58s13.08-3.27,16.68-7.05,9.58-5.89,9.44-3.44c0,.63-2,2.87-4.3,5s-4.13,4.37-4,5c.31,1.71,5.27-.16,7-2.63a9.43,9.43,0,0,1,4-2.91c2.73-.92,4.44,1.17,2.84,3.45a1.68,1.68,0,0,0,.4,2.35c1.56,1.1,6.31-2.82,7.32-6a5.59,5.59,0,0,1,3.27-3c2.53-.87,2.69-.75,6.18,4.75,2,3.09,4.2,5.67,5,5.71s2.32-1.87,3.66-4.55c2.45-4.92,6.67-8,8.17-6,.48.65.14,2.23-.76,3.5-1.17,1.68-1.09,2.7.3,3.68,3.18,2.22,13.8-4.28,20.66-12.64,3.46-4.22,6.51-7,7.79-7.12,2.93-.24,2.87,1-.32,6.73-2.41,4.31-13.25,36.62-12.91,38.5.15.88,16.4.54,38.77-.81,16.25-1,22.7-1.78,30.16-3.71,3-.76,7.49,1.12,6.4,2.68-.69,1-10.45,2.41-20,2.91-4.1.22-7.85.49-8.33.6s-11.68.62-24.91,1.12c-17.64.68-24.18,1.43-24.53,2.83a95.49,95.49,0,0,1-5.06,10.55c-11.82,22.2-32.62,34.85-68.32,41.52-30.23,5.65-68,3.84-88.87-4.27-9.33-3.62-10.64-4.55-13.35-9.54ZM106.79,272c24,7,49.89,8.48,76.32,4.47,28.25-4.28,49.6-15.09,60.47-30.61,5.84-8.34,11.52-20.21,10.13-21.18s-36.91.35-63.73,2.5c-25.46,2.05-59.29,7.59-73.17,12-11.61,3.68-25.85,11.14-28.5,14.94-1.19,1.7-1.75,4-1.29,5.43C88.28,263.48,97.61,269.36,106.79,272Zm26.27-81.2c1.29-1.25,2.39-2.87,2.43-3.58.08-1.45-2.74.93-4.66,3.45s-.36,2.65,2.23.13ZM98.83,216.37C112.21,197.12,127.5,175,132.31,167c8.25-13.8,8.23-14.88,7.75-16.61-.41-1.49-4.15-4.15-17.34-.17C112.23,153.36,86.61,170,70,185.75c-18.84,17.85-27.51,24.52-29.79,22.92-1.65-1.16-.54-3.64,7.36-16.38,6.73-10.85,11.95-21.41,12.13-24.52s-4.48-3.8-10.23.9c-6.43,5.25-8.77,6.16-20.83,25.8-4.29,7-6.11,10-7.4,11.68-1.08,1.42-1.89,2.09-2.79,1.58s-.69-1.82-.12-3.09,1.66-3.21,4-7.41c2.55-4.6,6.18-11.07,10.53-18.73L48,151.86a1.83,1.83,0,0,1,2.57-.69,2,2,0,0,1,.64,2.73l-3,5.26-6.39,11.11s1.24-1.75,7.58-6.28,11.35-4.76,12.86-1.78c1.17,2.32,2,1.63,5.53-4.71,2-3.61,6.81-11.64,10.63-17.85,6.54-10.62,7.69-14.07,3.7-11-2.64,2-11.59,3.7-13.29,2.51-1-.72-.85-2,.53-3.94s2.51-2.55,3.43-1.91c1.86,1.31,7.48.09,13-2.82,3.67-1.93,5.62-4,10.81-11.81Q141.26,44,89,46.55c-14.83.67-40.67,7.15-54.57,13.69-7,3.32-9.62,3.37-7.37.15,2.13-3,28.67-11.8,46.6-15.37,25.57-5.11,42-2.06,46.69,8.66,4.57,10.41,1.17,22.5-13.09,46.57-5,8.51-8.91,15.64-8.61,15.85.57.39,3.39-.94,22.06-10.38,14.68-7.42,20.69-9.92,21.86-9.09,1.81,1.26-1.26,3.79-11.92,9.82-5.89,3.33-10.84,6.25-11,6.48s2.78.41,6.56.39q19.56-.15,12.83,14.12l-2.18,4.65,3.53-2.24c1.95-1.24,4.07-2.3,5.23-2,.77.2,1.42,1.32,2.19,1.26,2.34-.18,5.27-2.34,8.16-5.17,1.28-1.25,2.57-2.51,3.86-3.75a61.41,61.41,0,0,1,11.38-7.47c3.15-1.26,6.14-.07,4.74,1.89s-9.46,8-13.16,10c-10.46,5.56-8.57,8.5,3.13,4.86,4.3-1.33,8.35-2,9-1.58,1.92,1.33.69,2.07-8.18,4.94-9.36,3-15.41,3.28-17.36.74-.86-1.13-1.67-1.21-2.35-.23-.58.82-2.26,1-3.75.46-2.22-.85-3.6-.18-7.9,3.83-2.86,2.67-5.63,4.65-6.14,4.41-3.35-1.57-3.27-2.07,1.42-8.85,7.7-11.12,5.48-14.81-8.56-14.24-3.83.15-8.56-.49-10.52-1.44-3.09-1.49-4.63-1.19-11.51,2.25l-8,4L82,140.08c-9.2,14.88-24.38,43.49-25.37,45.67-.26.57-.47,2.56-2,3.59-3.12,2.11-10,13.9-7.34,12.63.91-.44,8.77-7.11,17.47-14.84,31.13-27.62,51-40.8,65.06-43.1,14.88-2.44,20,3.79,12.56,16.35-2.33,3.93-17.41,26.77-34,50.45-29.13,41.51-30.3,43-32,41.8s-.83-2.69,22.52-36.26Zm86-89.19c4.59-5,12.63-10.85,15.84-11.61,2.06-.5,2.62-1.18,2.9-3.58.65-5.44,16.73-26.78,28.7-38.11,11.43-10.8,22.59-18.84,23.61-17,1.53,2.75-31.82,45.05-44.06,55.88-2.9,2.57-3.42,3.57-2.82,5.35a2.24,2.24,0,0,1-.77,2.85c-1.07.46-1.68.1-2-1.19-.87-3.18-2.23-1.75-3.64,3.83-1.82,7.17-1.52,8,2.09,5.61,1.68-1.11,2.88-1.35,2.67-.54-.59,2.28-6.46,5.13-8.58,4.18-1.19-.53-1.67-2.07-1.29-4.12.81-4.38.06-4.62-4.42-1.4-8.84,6.36-14.13,6.27-8.2-.14ZM236.72,80c10.83-14.34,11.17-14.92,7.43-12.74-7.7,4.48-19.08,16.53-28.14,29.81-4.74,7-8.66,13.57-8.7,14.73-.12,3.3,16.3-14.47,29.41-31.8Zm-15,41.59C227,115.41,237.69,107.47,240,108c.89.21,3.79-2.87,7.87-8.39,12.83-17.32,38.92-43.36,45.21-45.11,3.84-1.06,3.6.87-.73,5.95-2.42,2.85-8,9.76-12.39,15.37-9.45,12.06-24,28.24-32.12,35.68-4.68,4.3-6.09,6.23-7.38,10.08-.88,2.63-1.33,5.2-1,5.73s4.9-2.22,10.17-6.11c11.39-8.41,16.8-11.07,19.17-9.4s1.56,4.2-2.15,7.83c-2.21,2.16-3.48,2.58-4.89,1.59s-1.48-1.71.39-3.32c1.26-1.09,2-2.17,1.72-2.39-.85-.59-6.67,3.35-13.82,9.37-9.79,8.24-16.93,9.29-15.64,2.31.33-1.75.32-3.34,0-3.53s-3.26,1.14-6.52,3c-4.36,2.44-6.59,3-8.47,2-2.51-1.28-2.48-1.36,2.35-7.06Zm8.75.61c6.52-4.17,11.29-9.8,8.93-10.54-1.59-.49-9.21,4.8-14.53,10.1C220.1,126.57,223.32,126.82,230.51,122.23ZM256,99.63c10.31-10.76,26.57-31.15,24.63-30.87-4.29.6-37.17,38.23-34.84,39.86C246.31,109,250.9,104.94,256,99.63Zm15.42,31a5.82,5.82,0,0,1,1.13-4.08,3.58,3.58,0,0,0,.42-3.68c-1.56-2.31,2.74-7.35,4.05-4.83s4.14,0,6.46-1.08c4-1.83,7.14-1.27,7,1.24-.12,2-6.53,6.59-9.8,7-3.46.43-5,2.4-4.69,4.55.2,1.23,2.11,1.69,3.34,1.62,7-.36,11.23-4.74,17.81-11.06,5.14-4.93,8.42-6,5.39-1.7-2.56,3.6-12.95,12.52-17,14.62a16.48,16.48,0,0,1-7.13,1.57c-3,0-6.52-1.56-6.95-4.17Zm28.67-55.72c1.14-1.63,16.6-4.16,18.27-3,3,2.13,1.36,3.62-3.76,3.31a36.18,36.18,0,0,0-9.31.79c-4.2,1.1-6.42.63-5.2-1.11Z"/></svg>